<?xml version="1.0" encoding="UTF-8" standalone="no"?>
<!-- Created with Inkscape (http://www.inkscape.org/) -->

<svg
   width="172.39139mm"
   height="33.61552mm"
   viewBox="0 0 172.39139 33.61552"
   version="1.1"
   id="svg1"
   xmlns:xlink="http://www.w3.org/1999/xlink"
   xmlns="http://www.w3.org/2000/svg"
   xmlns:svg="http://www.w3.org/2000/svg">
  <defs
     id="defs1">
    <linearGradient
       id="swatch116">
      <stop
         style="stop-color:#ffffff;stop-opacity:0;"
         offset="0"
         id="stop116" />
    </linearGradient>
    <linearGradient
       id="swatch22">
      <stop
         style="stop-color:#f97316;stop-opacity:1;"
         offset="0"
         id="stop22" />
    </linearGradient>
    <clipPath
       clipPathUnits="userSpaceOnUse"
       id="clipPath134">
      <circle
         style="fill:url(#linearGradient135);fill-opacity:0;stroke:#f97316;stroke-width:1.11378;stroke-linecap:butt;stroke-linejoin:miter;stroke-miterlimit:4;stroke-dasharray:none;stroke-opacity:1"
         id="circle135"
         cx="67.667183"
         cy="200.48802"
         r="20.701042" />
    </clipPath>
    <linearGradient
       xlink:href="#swatch116"
       id="linearGradient135"
       gradientUnits="userSpaceOnUse"
       gradientTransform="matrix(0.93925585,0,0,0.93925585,4.1103869,12.178482)"
       x1="45.362766"
       y1="200.48802"
       x2="89.971596"
       y2="200.48802" />
    <clipPath
       clipPathUnits="userSpaceOnUse"
       id="clipPath122">
      <circle
         style="fill:url(#linearGradient122);fill-opacity:0;stroke:#f97316;stroke-width:1.11378;stroke-linecap:butt;stroke-linejoin:miter;stroke-miterlimit:4;stroke-dasharray:none;stroke-opacity:1"
         id="circle122"
         cx="67.667183"
         cy="200.48802"
         r="20.701042" />
    </clipPath>
    <linearGradient
       xlink:href="#swatch116"
       id="linearGradient122"
       gradientUnits="userSpaceOnUse"
       gradientTransform="matrix(0.93925586,0,0,0.93925586,4.1103873,12.178481)"
       x1="45.362766"
       y1="200.48802"
       x2="89.971596"
       y2="200.48802" />
    <clipPath
       clipPathUnits="userSpaceOnUse"
       id="clipPath123">
      <circle
         style="fill:url(#linearGradient123);fill-opacity:0;stroke:#f97316;stroke-width:1.11378;stroke-linecap:butt;stroke-linejoin:miter;stroke-miterlimit:4;stroke-dasharray:none;stroke-opacity:1"
         id="circle123"
         cx="67.667183"
         cy="200.48802"
         r="20.701042" />
    </clipPath>
    <linearGradient
       xlink:href="#swatch116"
       id="linearGradient123"
       gradientUnits="userSpaceOnUse"
       gradientTransform="matrix(0.93925585,0,0,0.93925585,4.1103868,12.17848)"
       x1="45.362766"
       y1="200.48802"
       x2="89.971596"
       y2="200.48802" />
    <clipPath
       clipPathUnits="userSpaceOnUse"
       id="clipPath124">
      <circle
         style="fill:url(#linearGradient124);fill-opacity:0;stroke:#f97316;stroke-width:1.11378;stroke-linecap:butt;stroke-linejoin:miter;stroke-miterlimit:4;stroke-dasharray:none;stroke-opacity:1"
         id="circle124"
         cx="67.667183"
         cy="200.48802"
         r="20.701042" />
    </clipPath>
    <linearGradient
       xlink:href="#swatch116"
       id="linearGradient124"
       gradientUnits="userSpaceOnUse"
       gradientTransform="matrix(0.93925585,0,0,0.93925585,4.1103868,12.17848)"
       x1="45.362766"
       y1="200.48802"
       x2="89.971596"
       y2="200.48802" />
  </defs>
  <g
     id="layer1"
     transform="translate(-15.893604,-245.46307)">
    <g
       id="g4"
       style="display:inline">
      <g
         id="g94"
         transform="translate(-1.3809742,7.5044633)">
        <g
           id="g93"
           transform="translate(-6.7351919,-0.05493878)"
           style="display:inline">
          <path
             style="baseline-shift:baseline;display:none;overflow:visible;opacity:1;vector-effect:none;fill:#ffffff;fill-opacity:1;stroke:none;stroke-width:1.96906;stroke-dasharray:none;stroke-opacity:1;paint-order:stroke markers fill;enable-background:accumulate;stop-color:#000000;stop-opacity:1"
             d="m 86.796875,180.74805 0.224609,0.11523 -18.427734,18.11524 h -0.119141 z"
             transform="matrix(0.68489576,0,0,0.68489576,-5.5268489,117.50791)"
             id="path116" />
          <g
             id="path114"
             clip-path="none"
             style="display:inline;opacity:1;fill:#808080"
             transform="matrix(0.68489577,0,0,0.68489577,-5.5268488,117.50791)" />
          <g
             id="path115"
             style="display:inline;fill:#f97316;fill-opacity:1;stroke:#ffffff;stroke-width:1.96906;stroke-dasharray:none;stroke-opacity:1;paint-order:stroke markers fill"
             transform="matrix(0.68489577,0,0,0.68489577,-5.6942804,117.37975)">
            <g
               id="g123">
              <path
                 style="display:inline;fill:#000000;fill-opacity:1;stroke:#111111;stroke-width:7.65744;stroke-linecap:butt;stroke-linejoin:miter;stroke-miterlimit:4;stroke-dasharray:none;stroke-opacity:1"
                 d="m 53.74469,202.27515 v 19.84351"
                 id="path108"
                 clip-path="url(#clipPath134)"
                 transform="translate(0.24446282,0.18712434)" />
              <path
                 id="path113"
                 style="display:inline;fill:none;fill-opacity:0;stroke:#f97316;stroke-width:0.370271;stroke-linecap:butt;stroke-linejoin:miter;stroke-miterlimit:4;stroke-dasharray:none;stroke-opacity:1"
                 d="m 51.505819,243.70353 a 15.421794,15.421794 0 0 1 0.103054,0.1"
                 transform="matrix(1.4600762,0,0,1.4600762,8.3140834,-171.38338)" />
              <path
                 id="path119"
                 style="baseline-shift:baseline;display:inline;overflow:visible;opacity:1;vector-effect:none;fill:#111111;fill-opacity:1;stroke:none;stroke-width:1.96906;stroke-dasharray:none;stroke-opacity:1;paint-order:stroke markers fill;enable-background:accumulate;stop-color:#000000;stop-opacity:1"
                 d="m 60.047228,194.90006 v 28.73647 h 7.657576 v -22.68526 c -1.326279,-0.009 -2.652281,-0.0185 -3.978559,-0.0272 1.326278,-1.31889 2.652281,-2.6378 3.978559,-3.95668 v -2.06737 z"
                 transform="translate(0.24446282,0.18712434)"
                 clip-path="url(#clipPath124)" />
              <path
                 style="display:inline;fill:#000000;fill-opacity:1;stroke:#111111;stroke-width:7.65744;stroke-linecap:butt;stroke-linejoin:miter;stroke-miterlimit:4;stroke-dasharray:none;stroke-opacity:1"
                 d="m 74.006322,200.44673 v 22.30336"
                 id="path110"
                 clip-path="url(#clipPath123)"
                 transform="translate(0.24446282,0.18712434)" />
              <path
                 id="path122"
                 style="baseline-shift:baseline;display:inline;overflow:visible;opacity:1;vector-effect:none;fill:#111111;stroke:none;enable-background:accumulate;stop-color:#000000;stop-opacity:1"
                 d="m 81.528278,189.0254 -1.220051,1.19892 v 31.12904 h 7.65833 V 189.0254 Z"
                 transform="translate(0.24446282,0.18712434)"
                 clip-path="url(#clipPath122)" />
              <path
                 id="circle119"
                 style="baseline-shift:baseline;display:inline;overflow:visible;opacity:1;vector-effect:none;fill:#f97316;fill-opacity:1;stroke:none;stroke-width:1.96906;stroke-dasharray:none;stroke-opacity:1;paint-order:stroke markers fill;enable-background:accumulate;stop-color:#000000;stop-opacity:1"
                 d="m 40.818563,238.01353 c -9.276853,0 -16.808791,7.53193 -16.808793,16.80879 -4e-6,9.27685 7.531935,16.80673 16.808793,16.80673 9.276858,0 16.806213,-7.52988 16.806209,-16.80673 -2e-6,-4.03186 -1.471716,-7.94824 -4.106053,-11.00047 l -1.122035,1.10302 c 2.364949,2.76101 3.658158,6.26204 3.658158,9.89745 4e-6,8.41716 -6.819109,15.23628 -15.236279,15.23628 -8.417169,0 -15.236283,-6.81912 -15.23628,-15.23628 2e-6,-8.41717 6.819115,-15.23834 15.23628,-15.23834 3.476932,0 6.830848,1.16514 9.538761,3.34603 l 1.109591,-1.09286 c -2.999271,-2.44556 -6.783296,-3.82362 -10.648352,-3.82362 z"
                 transform="matrix(1.4600762,0,0,1.4600762,8.3140834,-171.38338)" />
              <path
                 id="path100"
                 style="display:inline;fill:none;fill-opacity:0;stroke:#f97316;stroke-width:0.985799;stroke-linecap:butt;stroke-linejoin:miter;stroke-miterlimit:4;stroke-dasharray:none;stroke-opacity:1;paint-order:markers stroke fill"
                 d="m 52.139075,243.07345 a 16.314903,16.314903 0 0 1 0.106807,0.10387"
                 transform="matrix(1.4600762,0,0,1.4600762,8.3140834,-171.38338)" />
              <path
                 style="baseline-shift:baseline;display:inline;overflow:visible;opacity:1;vector-effect:none;fill:#f97316;fill-opacity:1;stroke:none;stroke-width:1.96906;stroke-dasharray:none;stroke-opacity:1;paint-order:stroke markers fill;enable-background:accumulate;stop-color:#000000;stop-opacity:1"
                 d="m 86.608371,179.54687 -20.507813,20.4043 2.894853,0.0136 19.691126,-19.35737 z"
                 id="path94"
                 transform="translate(0.2341649,0.20144105)" />
              <path
                 style="fill:#f97316;fill-opacity:1;stroke:none;stroke-width:1.33159;stroke-linecap:square;stroke-linejoin:bevel;stroke-dasharray:none;paint-order:markers stroke fill"
                 id="path89"
                 d="m 63.009669,183.03012 4.369678,-1.36188 4.369678,-1.36189 -1.005408,4.46519 -1.005409,4.4652 -3.364269,-3.10331 z"
                 transform="matrix(0.82098822,0.02158932,-0.02158932,0.82098822,36.077413,27.380741)" />
            </g>
          </g>
        </g>
        <g
           id="text135"
           style="font-size:22.5778px;font-family:Arial;-inkscape-font-specification:Arial;letter-spacing:0px;stroke-width:0.264583"
           aria-label="INTRACKER">
          <path
             style="font-weight:bold;font-family:Montserrat;-inkscape-font-specification:'Montserrat Bold';fill:#f97316"
             d="m 54.199141,262.66861 v -15.80446 h 3.657604 v 15.80446 z m 7.405499,0 v -15.80446 h 3.025425 l 9.324632,11.37921 H 72.48714 v -11.37921 h 3.612448 v 15.80446 H 73.09674 L 63.749531,251.2894 h 1.467557 v 11.37921 z"
             id="path91" />
          <path
             style="font-weight:bold;font-family:Montserrat;-inkscape-font-specification:'Montserrat Bold';fill:#111111"
             d="M 83.121297,262.66861 V 249.84442 H 78.06387 v -2.98027 h 13.772458 v 2.98027 h -5.057427 v 12.82419 z m 10.6793,0 v -15.80446 h 6.750763 q 3.29636,0 5.12516,1.53529 1.8288,1.51271 1.8288,4.19947 0,1.76107 -0.83538,3.048 -0.83538,1.26436 -2.37067,1.94169 -1.53529,0.67734 -3.6576,0.67734 h -4.809071 l 1.625602,-1.60303 v 6.0057 z m 10.047123,0 -3.951117,-5.73476 h 3.905957 l 3.99627,5.73476 z m -6.389519,-5.59929 -1.625602,-1.71592 h 4.605871 q 1.69334,0 2.52871,-0.72249 0.83538,-0.74506 0.83538,-2.032 0,-1.30951 -0.83538,-2.032 -0.83537,-0.72249 -2.52871,-0.72249 h -4.605871 l 1.625602,-1.73849 z m 10.859939,5.59929 7.04427,-15.80446 h 3.61245 l 7.06685,15.80446 h -3.83823 l -5.77991,-13.95308 h 1.44498 l -5.8025,13.95308 z m 3.52213,-3.38667 0.97085,-2.77707 h 8.12801 l 0.99342,2.77707 z m 23.18742,3.6576 q -1.8288,0 -3.40925,-0.58702 -1.55787,-0.6096 -2.70934,-1.71591 -1.15146,-1.10631 -1.80622,-2.59645 -0.63218,-1.49013 -0.63218,-3.27378 0,-1.78365 0.63218,-3.27378 0.65476,-1.49014 1.80622,-2.59645 1.17405,-1.10631 2.73192,-1.69333 1.55787,-0.6096 3.40925,-0.6096 2.05458,0 3.70276,0.72249 1.67075,0.69991 2.79964,2.07715 l -2.34809,2.16747 q -0.8128,-0.92569 -1.80622,-1.37724 -0.99343,-0.47414 -2.16747,-0.47414 -1.10631,0 -2.032,0.36125 -0.92569,0.36124 -1.60303,1.03858 -0.67733,0.67733 -1.06115,1.60302 -0.36125,0.92569 -0.36125,2.05458 0,1.12889 0.36125,2.05458 0.38382,0.92569 1.06115,1.60302 0.67734,0.67734 1.60303,1.03858 0.92569,0.36125 2.032,0.36125 1.17404,0 2.16747,-0.45156 0.99342,-0.47413 1.80622,-1.4224 l 2.34809,2.16747 q -1.12889,1.37724 -2.79964,2.09973 -1.64818,0.72249 -3.72534,0.72249 z m 12.05656,-3.88338 -0.2032,-4.22205 7.56356,-7.96996 h 4.06401 l -6.8185,7.33778 -2.032,2.16747 z m -3.27378,3.61245 v -15.80446 h 3.63503 v 15.80446 z m 10.81477,0 -5.62188,-6.88623 2.39325,-2.59645 7.49583,9.48268 z m 5.89279,0 v -15.80446 h 11.94366 v 2.93511 h -8.30863 v 9.93424 h 8.60214 v 2.93511 z m 3.3641,-6.59272 v -2.8448 h 7.60872 v 2.8448 z m 11.7856,6.59272 v -15.80446 h 6.75076 q 3.29636,0 5.12516,1.53529 1.82881,1.51271 1.82881,4.19947 0,1.76107 -0.83538,3.048 -0.83538,1.26436 -2.37067,1.94169 -1.53529,0.67734 -3.65761,0.67734 h -4.80907 l 1.6256,-1.60303 v 6.0057 z m 10.04712,0 -3.95111,-5.73476 h 3.90596 l 3.99627,5.73476 z m -6.38952,-5.59929 -1.6256,-1.71592 h 4.60587 q 1.69334,0 2.52872,-0.72249 0.83538,-0.74506 0.83538,-2.032 0,-1.30951 -0.83538,-2.032 -0.83538,-0.72249 -2.52872,-0.72249 h -4.60587 l 1.6256,-1.73849 z"
             id="path92" />
        </g>
        <path
           style="baseline-shift:baseline;display:none;overflow:visible;vector-effect:none;fill:#ffffff;fill-opacity:1;stroke:none;stroke-width:1.3486;stroke-dasharray:none;stroke-opacity:1;paint-order:stroke markers fill;enable-background:accumulate;stop-color:#000000"
           d="m 8.7380217,167.36167 0.1538337,0.0789 -12.6210769,12.40705 h -0.081599 z"
           id="path128" />
        <g
           id="g128"
           clip-path="none"
           style="display:inline;fill:#808080"
           transform="matrix(0.68489577,0,0,0.68489577,-50.70879,43.568093)" />
      </g>
    </g>
  </g>
</svg>
